<mxfile host="app.diagrams.net" modified="2023-05-10T18:06:27.050Z" agent="Mozilla/5.0 (Windows NT 10.0; Win64; x64) AppleWebKit/537.36 (KHTML, like Gecko) Chrome/112.0.0.0 Safari/537.36" etag="E7ikPZ77mdp5ZbBtcXBd" version="21.2.9" type="device">
  <diagram name="Page-1" id="2YBvvXClWsGukQMizWep">
    <mxGraphModel dx="1050" dy="573" grid="1" gridSize="10" guides="1" tooltips="1" connect="1" arrows="1" fold="1" page="1" pageScale="1" pageWidth="850" pageHeight="1100" math="0" shadow="0">
      <root>
        <mxCell id="0" />
        <mxCell id="1" parent="0" />
        <mxCell id="drem8hIzEslNzogFuknP-12" value="" style="endArrow=none;html=1;rounded=0;exitX=1;exitY=0.3333333333333333;exitDx=0;exitDy=0;exitPerimeter=0;entryX=0;entryY=0.5;entryDx=0;entryDy=0;strokeWidth=2;" parent="1" source="drem8hIzEslNzogFuknP-1" target="drem8hIzEslNzogFuknP-13" edge="1">
          <mxGeometry width="50" height="50" relative="1" as="geometry">
            <mxPoint x="440" y="200" as="sourcePoint" />
            <mxPoint x="150" y="150" as="targetPoint" />
          </mxGeometry>
        </mxCell>
        <mxCell id="drem8hIzEslNzogFuknP-13" value=":AddRecruitmentUI" style="rounded=0;whiteSpace=wrap;html=1;" parent="1" vertex="1">
          <mxGeometry x="250" y="110" width="120" height="60" as="geometry" />
        </mxCell>
        <mxCell id="drem8hIzEslNzogFuknP-15" value="" style="endArrow=none;html=1;rounded=0;exitX=1;exitY=0.5;exitDx=0;exitDy=0;entryX=0;entryY=0.5;entryDx=0;entryDy=0;strokeWidth=2;" parent="1" source="drem8hIzEslNzogFuknP-13" target="drem8hIzEslNzogFuknP-16" edge="1">
          <mxGeometry width="50" height="50" relative="1" as="geometry">
            <mxPoint x="440" y="200" as="sourcePoint" />
            <mxPoint x="490" y="150" as="targetPoint" />
          </mxGeometry>
        </mxCell>
        <mxCell id="drem8hIzEslNzogFuknP-16" value=":AddRecruitment" style="rounded=0;whiteSpace=wrap;html=1;" parent="1" vertex="1">
          <mxGeometry x="530" y="110" width="120" height="60" as="geometry" />
        </mxCell>
        <mxCell id="drem8hIzEslNzogFuknP-17" value="" style="endArrow=classic;html=1;rounded=0;" parent="1" edge="1">
          <mxGeometry width="50" height="50" relative="1" as="geometry">
            <mxPoint x="115" y="130" as="sourcePoint" />
            <mxPoint x="185" y="130" as="targetPoint" />
          </mxGeometry>
        </mxCell>
        <mxCell id="drem8hIzEslNzogFuknP-18" value="2.1: addNewRecruitment()" style="text;html=1;strokeColor=none;fillColor=none;align=center;verticalAlign=middle;whiteSpace=wrap;rounded=0;" parent="1" vertex="1">
          <mxGeometry x="380" y="90" width="150" height="30" as="geometry" />
        </mxCell>
        <mxCell id="drem8hIzEslNzogFuknP-19" value="2: createNewRecruitment()" style="text;html=1;strokeColor=none;fillColor=none;align=center;verticalAlign=middle;whiteSpace=wrap;rounded=0;" parent="1" vertex="1">
          <mxGeometry x="80" y="90" width="160" height="30" as="geometry" />
        </mxCell>
        <mxCell id="drem8hIzEslNzogFuknP-21" value="" style="endArrow=classic;html=1;rounded=0;" parent="1" edge="1">
          <mxGeometry width="50" height="50" relative="1" as="geometry">
            <mxPoint x="410" y="130" as="sourcePoint" />
            <mxPoint x="480" y="130" as="targetPoint" />
          </mxGeometry>
        </mxCell>
        <mxCell id="drem8hIzEslNzogFuknP-22" value="" style="endArrow=none;html=1;rounded=0;exitX=0.5;exitY=1;exitDx=0;exitDy=0;entryX=0.5;entryY=0;entryDx=0;entryDy=0;strokeWidth=2;" parent="1" source="drem8hIzEslNzogFuknP-16" target="drem8hIzEslNzogFuknP-23" edge="1">
          <mxGeometry width="50" height="50" relative="1" as="geometry">
            <mxPoint x="390" y="220" as="sourcePoint" />
            <mxPoint x="550" y="220" as="targetPoint" />
          </mxGeometry>
        </mxCell>
        <mxCell id="drem8hIzEslNzogFuknP-23" value=":CompMember" style="rounded=0;whiteSpace=wrap;html=1;" parent="1" vertex="1">
          <mxGeometry x="370" y="310" width="120" height="60" as="geometry" />
        </mxCell>
        <mxCell id="drem8hIzEslNzogFuknP-25" value="" style="endArrow=classic;html=1;rounded=0;" parent="1" edge="1">
          <mxGeometry width="50" height="50" relative="1" as="geometry">
            <mxPoint x="570" y="210" as="sourcePoint" />
            <mxPoint x="510" y="260" as="targetPoint" />
          </mxGeometry>
        </mxCell>
        <mxCell id="drem8hIzEslNzogFuknP-27" value="2.1.1: addNewRecruitment()" style="text;html=1;strokeColor=none;fillColor=none;align=center;verticalAlign=middle;whiteSpace=wrap;rounded=0;" parent="1" vertex="1">
          <mxGeometry x="550" y="230" width="160" height="30" as="geometry" />
        </mxCell>
        <mxCell id="drem8hIzEslNzogFuknP-28" value="" style="endArrow=none;html=1;rounded=0;exitX=0;exitY=0.5;exitDx=0;exitDy=0;entryX=1;entryY=0.5;entryDx=0;entryDy=0;strokeWidth=2;" parent="1" source="drem8hIzEslNzogFuknP-29" target="drem8hIzEslNzogFuknP-23" edge="1">
          <mxGeometry width="50" height="50" relative="1" as="geometry">
            <mxPoint x="600" y="180" as="sourcePoint" />
            <mxPoint x="440" y="320" as="targetPoint" />
          </mxGeometry>
        </mxCell>
        <mxCell id="drem8hIzEslNzogFuknP-29" value="newRecruit:Recruitinfo" style="rounded=0;whiteSpace=wrap;html=1;" parent="1" vertex="1">
          <mxGeometry x="680" y="310" width="160" height="60" as="geometry" />
        </mxCell>
        <mxCell id="drem8hIzEslNzogFuknP-30" value="" style="endArrow=classic;html=1;rounded=0;" parent="1" source="drem8hIzEslNzogFuknP-31" edge="1">
          <mxGeometry width="50" height="50" relative="1" as="geometry">
            <mxPoint x="555" y="330" as="sourcePoint" />
            <mxPoint x="625" y="330" as="targetPoint" />
          </mxGeometry>
        </mxCell>
        <mxCell id="drem8hIzEslNzogFuknP-32" value="" style="endArrow=classic;html=1;rounded=0;" parent="1" target="drem8hIzEslNzogFuknP-31" edge="1">
          <mxGeometry width="50" height="50" relative="1" as="geometry">
            <mxPoint x="555" y="330" as="sourcePoint" />
            <mxPoint x="625" y="330" as="targetPoint" />
          </mxGeometry>
        </mxCell>
        <mxCell id="drem8hIzEslNzogFuknP-31" value="2.1.1.1: Recruitinfo()" style="text;html=1;strokeColor=none;fillColor=none;align=center;verticalAlign=middle;whiteSpace=wrap;rounded=0;" parent="1" vertex="1">
          <mxGeometry x="515" y="300" width="150" height="30" as="geometry" />
        </mxCell>
        <mxCell id="drem8hIzEslNzogFuknP-34" value="" style="endArrow=classic;html=1;rounded=0;" parent="1" edge="1">
          <mxGeometry width="50" height="50" relative="1" as="geometry">
            <mxPoint x="550" y="330" as="sourcePoint" />
            <mxPoint x="620" y="330" as="targetPoint" />
          </mxGeometry>
        </mxCell>
        <mxCell id="drem8hIzEslNzogFuknP-84" value="&lt;b&gt;sd&lt;/b&gt; Add new recruitment" style="shape=umlFrame;whiteSpace=wrap;html=1;pointerEvents=0;recursiveResize=0;container=1;collapsible=0;width=160;" parent="1" vertex="1">
          <mxGeometry x="25" y="60" width="975" height="330" as="geometry" />
        </mxCell>
        <mxCell id="drem8hIzEslNzogFuknP-109" value="1: startInterface()" style="text;html=1;strokeColor=none;fillColor=none;align=center;verticalAlign=middle;whiteSpace=wrap;rounded=0;" parent="drem8hIzEslNzogFuknP-84" vertex="1">
          <mxGeometry x="355" y="100" width="150" height="30" as="geometry" />
        </mxCell>
        <mxCell id="drem8hIzEslNzogFuknP-1" value="CompanyMember" style="shape=umlActor;verticalLabelPosition=bottom;verticalAlign=top;html=1;outlineConnect=0;" parent="drem8hIzEslNzogFuknP-84" vertex="1">
          <mxGeometry x="35" y="60" width="30" height="60" as="geometry" />
        </mxCell>
        <mxCell id="drem8hIzEslNzogFuknP-104" value="&lt;b&gt;sd &lt;/b&gt;show recruitment list" style="shape=umlFrame;whiteSpace=wrap;html=1;pointerEvents=0;recursiveResize=0;container=1;collapsible=0;width=160;" parent="1" vertex="1">
          <mxGeometry x="25" y="440" width="975" height="320" as="geometry" />
        </mxCell>
        <mxCell id="drem8hIzEslNzogFuknP-106" value="companyMember" style="shape=umlActor;verticalLabelPosition=bottom;verticalAlign=top;html=1;outlineConnect=0;" parent="drem8hIzEslNzogFuknP-104" vertex="1">
          <mxGeometry x="35" y="90" width="30" height="60" as="geometry" />
        </mxCell>
        <mxCell id="drem8hIzEslNzogFuknP-108" value="" style="endArrow=none;html=1;rounded=0;entryX=1;entryY=0.3333333333333333;entryDx=0;entryDy=0;strokeWidth=2;entryPerimeter=0;exitX=0;exitY=0.5;exitDx=0;exitDy=0;" parent="drem8hIzEslNzogFuknP-104" source="drem8hIzEslNzogFuknP-112" target="drem8hIzEslNzogFuknP-106" edge="1">
          <mxGeometry width="50" height="50" relative="1" as="geometry">
            <mxPoint x="245" y="110" as="sourcePoint" />
            <mxPoint x="55" y="110" as="targetPoint" />
          </mxGeometry>
        </mxCell>
        <mxCell id="drem8hIzEslNzogFuknP-112" value=":recruitmentInfoUI" style="rounded=0;whiteSpace=wrap;html=1;" parent="drem8hIzEslNzogFuknP-104" vertex="1">
          <mxGeometry x="225" y="80" width="120" height="60" as="geometry" />
        </mxCell>
        <mxCell id="drem8hIzEslNzogFuknP-113" value="2: selectRecruitmentList()&lt;br&gt;3: selectRecruitmentInfo()" style="text;html=1;strokeColor=none;fillColor=none;align=center;verticalAlign=middle;whiteSpace=wrap;rounded=0;" parent="drem8hIzEslNzogFuknP-104" vertex="1">
          <mxGeometry x="75" y="60" width="140" height="30" as="geometry" />
        </mxCell>
        <mxCell id="drem8hIzEslNzogFuknP-115" value="" style="endArrow=classic;html=1;rounded=0;" parent="drem8hIzEslNzogFuknP-104" edge="1">
          <mxGeometry width="50" height="50" relative="1" as="geometry">
            <mxPoint x="95" y="100" as="sourcePoint" />
            <mxPoint x="165" y="100" as="targetPoint" />
          </mxGeometry>
        </mxCell>
        <mxCell id="drem8hIzEslNzogFuknP-116" value=":showRecruitmentInfo" style="rounded=0;whiteSpace=wrap;html=1;" parent="drem8hIzEslNzogFuknP-104" vertex="1">
          <mxGeometry x="515" y="80" width="120" height="60" as="geometry" />
        </mxCell>
        <mxCell id="drem8hIzEslNzogFuknP-117" value="" style="endArrow=none;html=1;rounded=0;entryX=0;entryY=0.5;entryDx=0;entryDy=0;strokeWidth=2;exitX=1;exitY=0.5;exitDx=0;exitDy=0;" parent="drem8hIzEslNzogFuknP-104" source="drem8hIzEslNzogFuknP-112" target="drem8hIzEslNzogFuknP-116" edge="1">
          <mxGeometry width="50" height="50" relative="1" as="geometry">
            <mxPoint x="385" y="110" as="sourcePoint" />
            <mxPoint x="475" y="109.5" as="targetPoint" />
          </mxGeometry>
        </mxCell>
        <mxCell id="drem8hIzEslNzogFuknP-118" value="2.1: showRecruitmentList()&lt;br&gt;3.1: showRecruitmentInfo()" style="text;html=1;strokeColor=none;fillColor=none;align=center;verticalAlign=middle;whiteSpace=wrap;rounded=0;" parent="drem8hIzEslNzogFuknP-104" vertex="1">
          <mxGeometry x="355" y="60" width="150" height="30" as="geometry" />
        </mxCell>
        <mxCell id="drem8hIzEslNzogFuknP-119" value="" style="endArrow=classic;html=1;rounded=0;" parent="drem8hIzEslNzogFuknP-104" edge="1">
          <mxGeometry width="50" height="50" relative="1" as="geometry">
            <mxPoint x="395" y="99" as="sourcePoint" />
            <mxPoint x="465" y="99" as="targetPoint" />
          </mxGeometry>
        </mxCell>
        <mxCell id="drem8hIzEslNzogFuknP-124" value="" style="endArrow=classic;html=1;rounded=0;" parent="drem8hIzEslNzogFuknP-104" edge="1">
          <mxGeometry width="50" height="50" relative="1" as="geometry">
            <mxPoint x="465" y="130" as="sourcePoint" />
            <mxPoint x="395" y="130" as="targetPoint" />
          </mxGeometry>
        </mxCell>
        <mxCell id="drem8hIzEslNzogFuknP-125" value="1: startInterface()" style="text;html=1;strokeColor=none;fillColor=none;align=center;verticalAlign=middle;whiteSpace=wrap;rounded=0;" parent="drem8hIzEslNzogFuknP-104" vertex="1">
          <mxGeometry x="355" y="130" width="150" height="30" as="geometry" />
        </mxCell>
        <mxCell id="drem8hIzEslNzogFuknP-127" value="" style="endArrow=none;html=1;rounded=0;strokeWidth=2;exitX=0.5;exitY=1;exitDx=0;exitDy=0;entryX=0.5;entryY=0;entryDx=0;entryDy=0;" parent="drem8hIzEslNzogFuknP-104" source="drem8hIzEslNzogFuknP-116" target="drem8hIzEslNzogFuknP-128" edge="1">
          <mxGeometry width="50" height="50" relative="1" as="geometry">
            <mxPoint x="575" y="140" as="sourcePoint" />
            <mxPoint x="415" y="280" as="targetPoint" />
          </mxGeometry>
        </mxCell>
        <mxCell id="drem8hIzEslNzogFuknP-128" value=":RecruitInfo" style="rounded=0;whiteSpace=wrap;html=1;" parent="drem8hIzEslNzogFuknP-104" vertex="1">
          <mxGeometry x="415" y="240" width="120" height="60" as="geometry" />
        </mxCell>
        <mxCell id="drem8hIzEslNzogFuknP-130" value="" style="endArrow=classic;html=1;rounded=0;" parent="drem8hIzEslNzogFuknP-104" edge="1">
          <mxGeometry width="50" height="50" relative="1" as="geometry">
            <mxPoint x="565" y="170" as="sourcePoint" />
            <mxPoint x="505" y="230" as="targetPoint" />
          </mxGeometry>
        </mxCell>
        <mxCell id="drem8hIzEslNzogFuknP-142" value="3.1.1:&amp;nbsp;getRecruitmentDetails()" style="text;html=1;strokeColor=none;fillColor=none;align=center;verticalAlign=middle;whiteSpace=wrap;rounded=0;" parent="drem8hIzEslNzogFuknP-104" vertex="1">
          <mxGeometry x="525" y="190" width="235" height="30" as="geometry" />
        </mxCell>
        <mxCell id="drem8hIzEslNzogFuknP-158" value="" style="endArrow=none;html=1;rounded=0;strokeWidth=2;exitX=1;exitY=0.5;exitDx=0;exitDy=0;entryX=0;entryY=0.5;entryDx=0;entryDy=0;" parent="drem8hIzEslNzogFuknP-104" source="drem8hIzEslNzogFuknP-116" target="drem8hIzEslNzogFuknP-159" edge="1">
          <mxGeometry width="50" height="50" relative="1" as="geometry">
            <mxPoint x="585" y="150" as="sourcePoint" />
            <mxPoint x="485" y="250" as="targetPoint" />
          </mxGeometry>
        </mxCell>
        <mxCell id="drem8hIzEslNzogFuknP-159" value=":CompMember" style="rounded=0;whiteSpace=wrap;html=1;" parent="drem8hIzEslNzogFuknP-104" vertex="1">
          <mxGeometry x="795" y="80" width="160" height="60" as="geometry" />
        </mxCell>
        <mxCell id="drem8hIzEslNzogFuknP-160" value="2.1.1: getRecruitmentList()" style="text;html=1;strokeColor=none;fillColor=none;align=center;verticalAlign=middle;whiteSpace=wrap;rounded=0;" parent="drem8hIzEslNzogFuknP-104" vertex="1">
          <mxGeometry x="635" y="60" width="160" height="30" as="geometry" />
        </mxCell>
        <mxCell id="drem8hIzEslNzogFuknP-161" value="" style="endArrow=classic;html=1;rounded=0;" parent="drem8hIzEslNzogFuknP-104" edge="1">
          <mxGeometry width="50" height="50" relative="1" as="geometry">
            <mxPoint x="680" y="100" as="sourcePoint" />
            <mxPoint x="750" y="100" as="targetPoint" />
          </mxGeometry>
        </mxCell>
        <mxCell id="drem8hIzEslNzogFuknP-107" value="" style="endArrow=classic;html=1;rounded=0;" parent="1" edge="1">
          <mxGeometry width="50" height="50" relative="1" as="geometry">
            <mxPoint x="480" y="155" as="sourcePoint" />
            <mxPoint x="410" y="155" as="targetPoint" />
          </mxGeometry>
        </mxCell>
        <mxCell id="drem8hIzEslNzogFuknP-182" value="&lt;b&gt;sd &lt;/b&gt;show&lt;b&gt;&amp;nbsp;&lt;/b&gt;closed recruitment list" style="shape=umlFrame;whiteSpace=wrap;html=1;pointerEvents=0;recursiveResize=0;container=1;collapsible=0;width=175;height=30;" parent="1" vertex="1">
          <mxGeometry x="25" y="1860" width="975" height="320" as="geometry" />
        </mxCell>
        <mxCell id="drem8hIzEslNzogFuknP-183" value="companyMember" style="shape=umlActor;verticalLabelPosition=bottom;verticalAlign=top;html=1;outlineConnect=0;" parent="drem8hIzEslNzogFuknP-182" vertex="1">
          <mxGeometry x="35" y="90" width="30" height="60" as="geometry" />
        </mxCell>
        <mxCell id="drem8hIzEslNzogFuknP-184" value="" style="endArrow=none;html=1;rounded=0;entryX=1;entryY=0.3333333333333333;entryDx=0;entryDy=0;strokeWidth=2;entryPerimeter=0;exitX=0;exitY=0.5;exitDx=0;exitDy=0;" parent="drem8hIzEslNzogFuknP-182" source="drem8hIzEslNzogFuknP-185" target="drem8hIzEslNzogFuknP-183" edge="1">
          <mxGeometry width="50" height="50" relative="1" as="geometry">
            <mxPoint x="225" y="110" as="sourcePoint" />
            <mxPoint x="95" y="110" as="targetPoint" />
          </mxGeometry>
        </mxCell>
        <mxCell id="drem8hIzEslNzogFuknP-185" value=":closedRecruitmentListUI" style="rounded=0;whiteSpace=wrap;html=1;" parent="drem8hIzEslNzogFuknP-182" vertex="1">
          <mxGeometry x="225" y="80" width="145" height="60" as="geometry" />
        </mxCell>
        <mxCell id="drem8hIzEslNzogFuknP-186" value=":closedRecruitmentList" style="rounded=0;whiteSpace=wrap;html=1;" parent="drem8hIzEslNzogFuknP-182" vertex="1">
          <mxGeometry x="545" y="80" width="135" height="60" as="geometry" />
        </mxCell>
        <mxCell id="drem8hIzEslNzogFuknP-187" value="" style="endArrow=none;html=1;rounded=0;entryX=0;entryY=0.5;entryDx=0;entryDy=0;strokeWidth=2;exitX=1;exitY=0.5;exitDx=0;exitDy=0;" parent="drem8hIzEslNzogFuknP-182" source="drem8hIzEslNzogFuknP-185" target="drem8hIzEslNzogFuknP-186" edge="1">
          <mxGeometry width="50" height="50" relative="1" as="geometry">
            <mxPoint x="345" y="109.5" as="sourcePoint" />
            <mxPoint x="515" y="109.5" as="targetPoint" />
          </mxGeometry>
        </mxCell>
        <mxCell id="drem8hIzEslNzogFuknP-188" value="" style="endArrow=none;html=1;rounded=0;entryX=0.5;entryY=1;entryDx=0;entryDy=0;strokeWidth=2;exitX=0.5;exitY=0;exitDx=0;exitDy=0;" parent="drem8hIzEslNzogFuknP-182" source="drem8hIzEslNzogFuknP-198" target="drem8hIzEslNzogFuknP-186" edge="1">
          <mxGeometry width="50" height="50" relative="1" as="geometry">
            <mxPoint x="595" y="200" as="sourcePoint" />
            <mxPoint x="435" y="200" as="targetPoint" />
          </mxGeometry>
        </mxCell>
        <mxCell id="drem8hIzEslNzogFuknP-198" value=":RecruitInfo" style="rounded=0;whiteSpace=wrap;html=1;" parent="drem8hIzEslNzogFuknP-182" vertex="1">
          <mxGeometry x="465" y="230" width="120" height="60" as="geometry" />
        </mxCell>
        <mxCell id="drem8hIzEslNzogFuknP-199" value="2: selectClosedRecruitmentList()" style="text;html=1;strokeColor=none;fillColor=none;align=center;verticalAlign=middle;whiteSpace=wrap;rounded=0;" parent="drem8hIzEslNzogFuknP-182" vertex="1">
          <mxGeometry x="45" y="60" width="185" height="30" as="geometry" />
        </mxCell>
        <mxCell id="drem8hIzEslNzogFuknP-201" value="" style="endArrow=classic;html=1;rounded=0;" parent="drem8hIzEslNzogFuknP-182" edge="1">
          <mxGeometry width="50" height="50" relative="1" as="geometry">
            <mxPoint x="475" y="130" as="sourcePoint" />
            <mxPoint x="405" y="130" as="targetPoint" />
          </mxGeometry>
        </mxCell>
        <mxCell id="drem8hIzEslNzogFuknP-200" value="1: startInterface()" style="text;html=1;strokeColor=none;fillColor=none;align=center;verticalAlign=middle;whiteSpace=wrap;rounded=0;" parent="drem8hIzEslNzogFuknP-182" vertex="1">
          <mxGeometry x="365" y="130" width="150" height="30" as="geometry" />
        </mxCell>
        <mxCell id="drem8hIzEslNzogFuknP-202" value="2.1: showClosedRecruitmentList()" style="text;html=1;strokeColor=none;fillColor=none;align=center;verticalAlign=middle;whiteSpace=wrap;rounded=0;" parent="drem8hIzEslNzogFuknP-182" vertex="1">
          <mxGeometry x="362.5" y="60" width="190" height="30" as="geometry" />
        </mxCell>
        <mxCell id="drem8hIzEslNzogFuknP-203" value="" style="endArrow=classic;html=1;rounded=0;" parent="drem8hIzEslNzogFuknP-182" edge="1">
          <mxGeometry width="50" height="50" relative="1" as="geometry">
            <mxPoint x="415" y="100" as="sourcePoint" />
            <mxPoint x="485" y="100" as="targetPoint" />
          </mxGeometry>
        </mxCell>
        <mxCell id="drem8hIzEslNzogFuknP-181" value="" style="endArrow=classic;html=1;rounded=0;" parent="drem8hIzEslNzogFuknP-182" edge="1">
          <mxGeometry width="50" height="50" relative="1" as="geometry">
            <mxPoint x="95" y="100" as="sourcePoint" />
            <mxPoint x="165" y="100" as="targetPoint" />
          </mxGeometry>
        </mxCell>
        <mxCell id="drem8hIzEslNzogFuknP-204" value="2.1.1:1: *[For close==True recruitment]&lt;br&gt;getRecruitmentDetails()" style="text;html=1;strokeColor=none;fillColor=none;align=center;verticalAlign=middle;whiteSpace=wrap;rounded=0;" parent="drem8hIzEslNzogFuknP-182" vertex="1">
          <mxGeometry x="595" y="180" width="215" height="30" as="geometry" />
        </mxCell>
        <mxCell id="JZ2fbT_KJjBeIrSggk9i-61" value=":CompMember" style="rounded=0;whiteSpace=wrap;html=1;" parent="drem8hIzEslNzogFuknP-182" vertex="1">
          <mxGeometry x="805" y="80" width="160" height="60" as="geometry" />
        </mxCell>
        <mxCell id="JZ2fbT_KJjBeIrSggk9i-63" value="" style="endArrow=none;html=1;rounded=0;entryX=0;entryY=0.5;entryDx=0;entryDy=0;strokeWidth=2;exitX=1;exitY=0.5;exitDx=0;exitDy=0;" parent="drem8hIzEslNzogFuknP-182" source="drem8hIzEslNzogFuknP-186" target="JZ2fbT_KJjBeIrSggk9i-61" edge="1">
          <mxGeometry width="50" height="50" relative="1" as="geometry">
            <mxPoint x="380" y="120" as="sourcePoint" />
            <mxPoint x="555" y="120" as="targetPoint" />
          </mxGeometry>
        </mxCell>
        <mxCell id="JZ2fbT_KJjBeIrSggk9i-64" value="" style="endArrow=classic;html=1;rounded=0;" parent="drem8hIzEslNzogFuknP-182" edge="1">
          <mxGeometry width="50" height="50" relative="1" as="geometry">
            <mxPoint x="705" y="100" as="sourcePoint" />
            <mxPoint x="775" y="100" as="targetPoint" />
          </mxGeometry>
        </mxCell>
        <mxCell id="JZ2fbT_KJjBeIrSggk9i-65" value="2.1.1: getRecruitmentList()" style="text;html=1;strokeColor=none;fillColor=none;align=center;verticalAlign=middle;whiteSpace=wrap;rounded=0;" parent="drem8hIzEslNzogFuknP-182" vertex="1">
          <mxGeometry x="645" y="50" width="190" height="30" as="geometry" />
        </mxCell>
        <mxCell id="qEoQ_B2mHiI--1vtBCW5-1" value="" style="endArrow=classic;html=1;rounded=0;" edge="1" parent="drem8hIzEslNzogFuknP-182">
          <mxGeometry width="50" height="50" relative="1" as="geometry">
            <mxPoint x="625" y="160" as="sourcePoint" />
            <mxPoint x="565" y="220" as="targetPoint" />
          </mxGeometry>
        </mxCell>
        <mxCell id="JZ2fbT_KJjBeIrSggk9i-1" value="&lt;b&gt;sd &lt;/b&gt;modify recruitment" style="shape=umlFrame;whiteSpace=wrap;html=1;pointerEvents=0;recursiveResize=0;container=1;collapsible=0;width=160;" parent="1" vertex="1">
          <mxGeometry x="25" y="790" width="975" height="320" as="geometry" />
        </mxCell>
        <mxCell id="JZ2fbT_KJjBeIrSggk9i-2" value="companyMember" style="shape=umlActor;verticalLabelPosition=bottom;verticalAlign=top;html=1;outlineConnect=0;" parent="JZ2fbT_KJjBeIrSggk9i-1" vertex="1">
          <mxGeometry x="35" y="90" width="30" height="60" as="geometry" />
        </mxCell>
        <mxCell id="JZ2fbT_KJjBeIrSggk9i-3" value="" style="endArrow=none;html=1;rounded=0;entryX=1;entryY=0.3333333333333333;entryDx=0;entryDy=0;strokeWidth=2;entryPerimeter=0;exitX=0;exitY=0.5;exitDx=0;exitDy=0;" parent="JZ2fbT_KJjBeIrSggk9i-1" source="JZ2fbT_KJjBeIrSggk9i-4" target="JZ2fbT_KJjBeIrSggk9i-2" edge="1">
          <mxGeometry width="50" height="50" relative="1" as="geometry">
            <mxPoint x="245" y="110" as="sourcePoint" />
            <mxPoint x="55" y="110" as="targetPoint" />
          </mxGeometry>
        </mxCell>
        <mxCell id="JZ2fbT_KJjBeIrSggk9i-4" value=":modifyRecruitmentUI" style="rounded=0;whiteSpace=wrap;html=1;" parent="JZ2fbT_KJjBeIrSggk9i-1" vertex="1">
          <mxGeometry x="225" y="80" width="120" height="60" as="geometry" />
        </mxCell>
        <mxCell id="JZ2fbT_KJjBeIrSggk9i-5" value="2: selectRecruitmentList()&lt;br&gt;3: selectRecruitmentInfo()&lt;br&gt;4: selectModifyRecruitment()&lt;br&gt;5: insertModifyRecruitment()" style="text;html=1;strokeColor=none;fillColor=none;align=center;verticalAlign=middle;whiteSpace=wrap;rounded=0;" parent="JZ2fbT_KJjBeIrSggk9i-1" vertex="1">
          <mxGeometry x="65" y="50" width="155" height="30" as="geometry" />
        </mxCell>
        <mxCell id="JZ2fbT_KJjBeIrSggk9i-6" value="" style="endArrow=classic;html=1;rounded=0;" parent="JZ2fbT_KJjBeIrSggk9i-1" edge="1">
          <mxGeometry width="50" height="50" relative="1" as="geometry">
            <mxPoint x="95" y="100" as="sourcePoint" />
            <mxPoint x="165" y="100" as="targetPoint" />
          </mxGeometry>
        </mxCell>
        <mxCell id="JZ2fbT_KJjBeIrSggk9i-7" value=":modifyRecruitment" style="rounded=0;whiteSpace=wrap;html=1;" parent="JZ2fbT_KJjBeIrSggk9i-1" vertex="1">
          <mxGeometry x="515" y="80" width="120" height="60" as="geometry" />
        </mxCell>
        <mxCell id="JZ2fbT_KJjBeIrSggk9i-8" value="" style="endArrow=none;html=1;rounded=0;entryX=0;entryY=0.5;entryDx=0;entryDy=0;strokeWidth=2;exitX=1;exitY=0.5;exitDx=0;exitDy=0;" parent="JZ2fbT_KJjBeIrSggk9i-1" source="JZ2fbT_KJjBeIrSggk9i-4" target="JZ2fbT_KJjBeIrSggk9i-7" edge="1">
          <mxGeometry width="50" height="50" relative="1" as="geometry">
            <mxPoint x="385" y="110" as="sourcePoint" />
            <mxPoint x="475" y="109.5" as="targetPoint" />
          </mxGeometry>
        </mxCell>
        <mxCell id="JZ2fbT_KJjBeIrSggk9i-9" value="2.1: showRecruitmentList()&lt;br&gt;3.1: showRecruitmentInfo()&lt;br&gt;4.1: showModifyRecruitment()&lt;br&gt;5.1: modifyRecruitment()" style="text;html=1;strokeColor=none;fillColor=none;align=center;verticalAlign=middle;whiteSpace=wrap;rounded=0;" parent="JZ2fbT_KJjBeIrSggk9i-1" vertex="1">
          <mxGeometry x="345" y="50" width="165" height="30" as="geometry" />
        </mxCell>
        <mxCell id="JZ2fbT_KJjBeIrSggk9i-10" value="" style="endArrow=classic;html=1;rounded=0;" parent="JZ2fbT_KJjBeIrSggk9i-1" edge="1">
          <mxGeometry width="50" height="50" relative="1" as="geometry">
            <mxPoint x="395" y="99" as="sourcePoint" />
            <mxPoint x="465" y="99" as="targetPoint" />
          </mxGeometry>
        </mxCell>
        <mxCell id="JZ2fbT_KJjBeIrSggk9i-11" value="" style="endArrow=classic;html=1;rounded=0;" parent="JZ2fbT_KJjBeIrSggk9i-1" edge="1">
          <mxGeometry width="50" height="50" relative="1" as="geometry">
            <mxPoint x="465" y="130" as="sourcePoint" />
            <mxPoint x="395" y="130" as="targetPoint" />
          </mxGeometry>
        </mxCell>
        <mxCell id="JZ2fbT_KJjBeIrSggk9i-12" value="1: startInterface()" style="text;html=1;strokeColor=none;fillColor=none;align=center;verticalAlign=middle;whiteSpace=wrap;rounded=0;" parent="JZ2fbT_KJjBeIrSggk9i-1" vertex="1">
          <mxGeometry x="355" y="130" width="150" height="30" as="geometry" />
        </mxCell>
        <mxCell id="JZ2fbT_KJjBeIrSggk9i-13" value="" style="endArrow=none;html=1;rounded=0;strokeWidth=2;exitX=0.5;exitY=1;exitDx=0;exitDy=0;entryX=0.5;entryY=0;entryDx=0;entryDy=0;" parent="JZ2fbT_KJjBeIrSggk9i-1" source="JZ2fbT_KJjBeIrSggk9i-7" target="JZ2fbT_KJjBeIrSggk9i-14" edge="1">
          <mxGeometry width="50" height="50" relative="1" as="geometry">
            <mxPoint x="575" y="140" as="sourcePoint" />
            <mxPoint x="415" y="280" as="targetPoint" />
          </mxGeometry>
        </mxCell>
        <mxCell id="JZ2fbT_KJjBeIrSggk9i-14" value=":RecruitInfo" style="rounded=0;whiteSpace=wrap;html=1;" parent="JZ2fbT_KJjBeIrSggk9i-1" vertex="1">
          <mxGeometry x="415" y="240" width="120" height="60" as="geometry" />
        </mxCell>
        <mxCell id="JZ2fbT_KJjBeIrSggk9i-15" value="" style="endArrow=classic;html=1;rounded=0;" parent="JZ2fbT_KJjBeIrSggk9i-1" edge="1">
          <mxGeometry width="50" height="50" relative="1" as="geometry">
            <mxPoint x="565" y="170" as="sourcePoint" />
            <mxPoint x="505" y="230" as="targetPoint" />
          </mxGeometry>
        </mxCell>
        <mxCell id="JZ2fbT_KJjBeIrSggk9i-16" value="3.1.1:&amp;nbsp;getRecruitmentDetails()&lt;br&gt;4.1.1: showModifyRecruitment()&lt;br&gt;5.1.1: modifyRecruitment()" style="text;html=1;strokeColor=none;fillColor=none;align=center;verticalAlign=middle;whiteSpace=wrap;rounded=0;" parent="JZ2fbT_KJjBeIrSggk9i-1" vertex="1">
          <mxGeometry x="525" y="190" width="235" height="30" as="geometry" />
        </mxCell>
        <mxCell id="JZ2fbT_KJjBeIrSggk9i-17" value="" style="endArrow=none;html=1;rounded=0;strokeWidth=2;exitX=1;exitY=0.5;exitDx=0;exitDy=0;entryX=0;entryY=0.5;entryDx=0;entryDy=0;" parent="JZ2fbT_KJjBeIrSggk9i-1" source="JZ2fbT_KJjBeIrSggk9i-7" target="JZ2fbT_KJjBeIrSggk9i-18" edge="1">
          <mxGeometry width="50" height="50" relative="1" as="geometry">
            <mxPoint x="585" y="150" as="sourcePoint" />
            <mxPoint x="485" y="250" as="targetPoint" />
          </mxGeometry>
        </mxCell>
        <mxCell id="JZ2fbT_KJjBeIrSggk9i-18" value=":CompMember" style="rounded=0;whiteSpace=wrap;html=1;" parent="JZ2fbT_KJjBeIrSggk9i-1" vertex="1">
          <mxGeometry x="795" y="80" width="160" height="60" as="geometry" />
        </mxCell>
        <mxCell id="JZ2fbT_KJjBeIrSggk9i-19" value="2.1.1: getRecruitmentList()" style="text;html=1;strokeColor=none;fillColor=none;align=center;verticalAlign=middle;whiteSpace=wrap;rounded=0;" parent="JZ2fbT_KJjBeIrSggk9i-1" vertex="1">
          <mxGeometry x="635" y="60" width="160" height="30" as="geometry" />
        </mxCell>
        <mxCell id="JZ2fbT_KJjBeIrSggk9i-20" value="" style="endArrow=classic;html=1;rounded=0;" parent="JZ2fbT_KJjBeIrSggk9i-1" edge="1">
          <mxGeometry width="50" height="50" relative="1" as="geometry">
            <mxPoint x="680" y="100" as="sourcePoint" />
            <mxPoint x="750" y="100" as="targetPoint" />
          </mxGeometry>
        </mxCell>
        <mxCell id="JZ2fbT_KJjBeIrSggk9i-21" value="&lt;b&gt;sd &lt;/b&gt;delete recruitment" style="shape=umlFrame;whiteSpace=wrap;html=1;pointerEvents=0;recursiveResize=0;container=1;collapsible=0;width=160;" parent="1" vertex="1">
          <mxGeometry x="30" y="1140" width="975" height="320" as="geometry" />
        </mxCell>
        <mxCell id="JZ2fbT_KJjBeIrSggk9i-22" value="companyMember" style="shape=umlActor;verticalLabelPosition=bottom;verticalAlign=top;html=1;outlineConnect=0;" parent="JZ2fbT_KJjBeIrSggk9i-21" vertex="1">
          <mxGeometry x="35" y="90" width="30" height="60" as="geometry" />
        </mxCell>
        <mxCell id="JZ2fbT_KJjBeIrSggk9i-23" value="" style="endArrow=none;html=1;rounded=0;entryX=1;entryY=0.3333333333333333;entryDx=0;entryDy=0;strokeWidth=2;entryPerimeter=0;exitX=0;exitY=0.5;exitDx=0;exitDy=0;" parent="JZ2fbT_KJjBeIrSggk9i-21" source="JZ2fbT_KJjBeIrSggk9i-24" target="JZ2fbT_KJjBeIrSggk9i-22" edge="1">
          <mxGeometry width="50" height="50" relative="1" as="geometry">
            <mxPoint x="245" y="110" as="sourcePoint" />
            <mxPoint x="55" y="110" as="targetPoint" />
          </mxGeometry>
        </mxCell>
        <mxCell id="JZ2fbT_KJjBeIrSggk9i-24" value=":deleteRecruitmentUI" style="rounded=0;whiteSpace=wrap;html=1;" parent="JZ2fbT_KJjBeIrSggk9i-21" vertex="1">
          <mxGeometry x="225" y="80" width="120" height="60" as="geometry" />
        </mxCell>
        <mxCell id="JZ2fbT_KJjBeIrSggk9i-25" value="2: selectRecruitmentList()&lt;br&gt;3: selectRecruitmentInfo()&lt;br&gt;4: selectDeleteRecruitment()&lt;br&gt;" style="text;html=1;strokeColor=none;fillColor=none;align=center;verticalAlign=middle;whiteSpace=wrap;rounded=0;" parent="JZ2fbT_KJjBeIrSggk9i-21" vertex="1">
          <mxGeometry x="65" y="50" width="155" height="30" as="geometry" />
        </mxCell>
        <mxCell id="JZ2fbT_KJjBeIrSggk9i-26" value="" style="endArrow=classic;html=1;rounded=0;" parent="JZ2fbT_KJjBeIrSggk9i-21" edge="1">
          <mxGeometry width="50" height="50" relative="1" as="geometry">
            <mxPoint x="95" y="100" as="sourcePoint" />
            <mxPoint x="165" y="100" as="targetPoint" />
          </mxGeometry>
        </mxCell>
        <mxCell id="JZ2fbT_KJjBeIrSggk9i-27" value=":deleteRecruitment" style="rounded=0;whiteSpace=wrap;html=1;" parent="JZ2fbT_KJjBeIrSggk9i-21" vertex="1">
          <mxGeometry x="515" y="80" width="120" height="60" as="geometry" />
        </mxCell>
        <mxCell id="JZ2fbT_KJjBeIrSggk9i-28" value="" style="endArrow=none;html=1;rounded=0;entryX=0;entryY=0.5;entryDx=0;entryDy=0;strokeWidth=2;exitX=1;exitY=0.5;exitDx=0;exitDy=0;" parent="JZ2fbT_KJjBeIrSggk9i-21" source="JZ2fbT_KJjBeIrSggk9i-24" target="JZ2fbT_KJjBeIrSggk9i-27" edge="1">
          <mxGeometry width="50" height="50" relative="1" as="geometry">
            <mxPoint x="385" y="110" as="sourcePoint" />
            <mxPoint x="475" y="109.5" as="targetPoint" />
          </mxGeometry>
        </mxCell>
        <mxCell id="JZ2fbT_KJjBeIrSggk9i-29" value="2.1: showRecruitmentList()&lt;br&gt;3.1: showRecruitmentInfo()&lt;br&gt;4.1: deleteRecruitment()&lt;br&gt;" style="text;html=1;strokeColor=none;fillColor=none;align=center;verticalAlign=middle;whiteSpace=wrap;rounded=0;" parent="JZ2fbT_KJjBeIrSggk9i-21" vertex="1">
          <mxGeometry x="345" y="50" width="165" height="30" as="geometry" />
        </mxCell>
        <mxCell id="JZ2fbT_KJjBeIrSggk9i-30" value="" style="endArrow=classic;html=1;rounded=0;" parent="JZ2fbT_KJjBeIrSggk9i-21" edge="1">
          <mxGeometry width="50" height="50" relative="1" as="geometry">
            <mxPoint x="395" y="99" as="sourcePoint" />
            <mxPoint x="465" y="99" as="targetPoint" />
          </mxGeometry>
        </mxCell>
        <mxCell id="JZ2fbT_KJjBeIrSggk9i-31" value="" style="endArrow=classic;html=1;rounded=0;" parent="JZ2fbT_KJjBeIrSggk9i-21" edge="1">
          <mxGeometry width="50" height="50" relative="1" as="geometry">
            <mxPoint x="465" y="130" as="sourcePoint" />
            <mxPoint x="395" y="130" as="targetPoint" />
          </mxGeometry>
        </mxCell>
        <mxCell id="JZ2fbT_KJjBeIrSggk9i-32" value="1: startInterface()" style="text;html=1;strokeColor=none;fillColor=none;align=center;verticalAlign=middle;whiteSpace=wrap;rounded=0;" parent="JZ2fbT_KJjBeIrSggk9i-21" vertex="1">
          <mxGeometry x="355" y="130" width="150" height="30" as="geometry" />
        </mxCell>
        <mxCell id="JZ2fbT_KJjBeIrSggk9i-33" value="" style="endArrow=none;html=1;rounded=0;strokeWidth=2;exitX=0.5;exitY=1;exitDx=0;exitDy=0;entryX=0.5;entryY=0;entryDx=0;entryDy=0;" parent="JZ2fbT_KJjBeIrSggk9i-21" source="JZ2fbT_KJjBeIrSggk9i-27" target="JZ2fbT_KJjBeIrSggk9i-34" edge="1">
          <mxGeometry width="50" height="50" relative="1" as="geometry">
            <mxPoint x="575" y="140" as="sourcePoint" />
            <mxPoint x="415" y="280" as="targetPoint" />
          </mxGeometry>
        </mxCell>
        <mxCell id="JZ2fbT_KJjBeIrSggk9i-34" value=":RecruitInfo" style="rounded=0;whiteSpace=wrap;html=1;" parent="JZ2fbT_KJjBeIrSggk9i-21" vertex="1">
          <mxGeometry x="415" y="240" width="120" height="60" as="geometry" />
        </mxCell>
        <mxCell id="JZ2fbT_KJjBeIrSggk9i-35" value="" style="endArrow=classic;html=1;rounded=0;" parent="JZ2fbT_KJjBeIrSggk9i-21" edge="1">
          <mxGeometry width="50" height="50" relative="1" as="geometry">
            <mxPoint x="565" y="170" as="sourcePoint" />
            <mxPoint x="505" y="230" as="targetPoint" />
          </mxGeometry>
        </mxCell>
        <mxCell id="JZ2fbT_KJjBeIrSggk9i-36" value="3.1.1:&amp;nbsp;getRecruitmentDetails()&lt;br&gt;4.1.1: deleteRecruitment()&lt;br&gt;" style="text;html=1;strokeColor=none;fillColor=none;align=center;verticalAlign=middle;whiteSpace=wrap;rounded=0;" parent="JZ2fbT_KJjBeIrSggk9i-21" vertex="1">
          <mxGeometry x="515" y="190" width="235" height="30" as="geometry" />
        </mxCell>
        <mxCell id="JZ2fbT_KJjBeIrSggk9i-37" value="" style="endArrow=none;html=1;rounded=0;strokeWidth=2;exitX=1;exitY=0.5;exitDx=0;exitDy=0;entryX=0;entryY=0.5;entryDx=0;entryDy=0;" parent="JZ2fbT_KJjBeIrSggk9i-21" source="JZ2fbT_KJjBeIrSggk9i-27" target="JZ2fbT_KJjBeIrSggk9i-38" edge="1">
          <mxGeometry width="50" height="50" relative="1" as="geometry">
            <mxPoint x="585" y="150" as="sourcePoint" />
            <mxPoint x="485" y="250" as="targetPoint" />
          </mxGeometry>
        </mxCell>
        <mxCell id="JZ2fbT_KJjBeIrSggk9i-38" value=":CompMember" style="rounded=0;whiteSpace=wrap;html=1;" parent="JZ2fbT_KJjBeIrSggk9i-21" vertex="1">
          <mxGeometry x="795" y="80" width="160" height="60" as="geometry" />
        </mxCell>
        <mxCell id="JZ2fbT_KJjBeIrSggk9i-39" value="2.1.1: getRecruitmentList()" style="text;html=1;strokeColor=none;fillColor=none;align=center;verticalAlign=middle;whiteSpace=wrap;rounded=0;" parent="JZ2fbT_KJjBeIrSggk9i-21" vertex="1">
          <mxGeometry x="635" y="60" width="160" height="30" as="geometry" />
        </mxCell>
        <mxCell id="JZ2fbT_KJjBeIrSggk9i-40" value="" style="endArrow=classic;html=1;rounded=0;" parent="JZ2fbT_KJjBeIrSggk9i-21" edge="1">
          <mxGeometry width="50" height="50" relative="1" as="geometry">
            <mxPoint x="680" y="100" as="sourcePoint" />
            <mxPoint x="750" y="100" as="targetPoint" />
          </mxGeometry>
        </mxCell>
        <mxCell id="JZ2fbT_KJjBeIrSggk9i-41" value="&lt;b&gt;sd &lt;/b&gt;close recruitment" style="shape=umlFrame;whiteSpace=wrap;html=1;pointerEvents=0;recursiveResize=0;container=1;collapsible=0;width=160;" parent="1" vertex="1">
          <mxGeometry x="30" y="1500" width="975" height="320" as="geometry" />
        </mxCell>
        <mxCell id="JZ2fbT_KJjBeIrSggk9i-42" value="companyMember" style="shape=umlActor;verticalLabelPosition=bottom;verticalAlign=top;html=1;outlineConnect=0;" parent="JZ2fbT_KJjBeIrSggk9i-41" vertex="1">
          <mxGeometry x="35" y="90" width="30" height="60" as="geometry" />
        </mxCell>
        <mxCell id="JZ2fbT_KJjBeIrSggk9i-43" value="" style="endArrow=none;html=1;rounded=0;entryX=1;entryY=0.3333333333333333;entryDx=0;entryDy=0;strokeWidth=2;entryPerimeter=0;exitX=0;exitY=0.5;exitDx=0;exitDy=0;" parent="JZ2fbT_KJjBeIrSggk9i-41" source="JZ2fbT_KJjBeIrSggk9i-44" target="JZ2fbT_KJjBeIrSggk9i-42" edge="1">
          <mxGeometry width="50" height="50" relative="1" as="geometry">
            <mxPoint x="245" y="110" as="sourcePoint" />
            <mxPoint x="55" y="110" as="targetPoint" />
          </mxGeometry>
        </mxCell>
        <mxCell id="JZ2fbT_KJjBeIrSggk9i-44" value=":closeRecruitmentUI" style="rounded=0;whiteSpace=wrap;html=1;" parent="JZ2fbT_KJjBeIrSggk9i-41" vertex="1">
          <mxGeometry x="225" y="80" width="120" height="60" as="geometry" />
        </mxCell>
        <mxCell id="JZ2fbT_KJjBeIrSggk9i-45" value="2: selectRecruitmentList()&lt;br&gt;3: selectRecruitmentInfo()&lt;br&gt;4: selectCloseRecruitment()" style="text;html=1;strokeColor=none;fillColor=none;align=center;verticalAlign=middle;whiteSpace=wrap;rounded=0;" parent="JZ2fbT_KJjBeIrSggk9i-41" vertex="1">
          <mxGeometry x="65" y="50" width="155" height="30" as="geometry" />
        </mxCell>
        <mxCell id="JZ2fbT_KJjBeIrSggk9i-46" value="" style="endArrow=classic;html=1;rounded=0;" parent="JZ2fbT_KJjBeIrSggk9i-41" edge="1">
          <mxGeometry width="50" height="50" relative="1" as="geometry">
            <mxPoint x="95" y="100" as="sourcePoint" />
            <mxPoint x="165" y="100" as="targetPoint" />
          </mxGeometry>
        </mxCell>
        <mxCell id="JZ2fbT_KJjBeIrSggk9i-47" value=":closeRecruitment" style="rounded=0;whiteSpace=wrap;html=1;" parent="JZ2fbT_KJjBeIrSggk9i-41" vertex="1">
          <mxGeometry x="515" y="80" width="120" height="60" as="geometry" />
        </mxCell>
        <mxCell id="JZ2fbT_KJjBeIrSggk9i-48" value="" style="endArrow=none;html=1;rounded=0;entryX=0;entryY=0.5;entryDx=0;entryDy=0;strokeWidth=2;exitX=1;exitY=0.5;exitDx=0;exitDy=0;" parent="JZ2fbT_KJjBeIrSggk9i-41" source="JZ2fbT_KJjBeIrSggk9i-44" target="JZ2fbT_KJjBeIrSggk9i-47" edge="1">
          <mxGeometry width="50" height="50" relative="1" as="geometry">
            <mxPoint x="385" y="110" as="sourcePoint" />
            <mxPoint x="475" y="109.5" as="targetPoint" />
          </mxGeometry>
        </mxCell>
        <mxCell id="JZ2fbT_KJjBeIrSggk9i-49" value="2.1: showRecruitmentList()&lt;br&gt;3.1: showRecruitmentInfo()&lt;br&gt;4.1: closeRecruitment()" style="text;html=1;strokeColor=none;fillColor=none;align=center;verticalAlign=middle;whiteSpace=wrap;rounded=0;" parent="JZ2fbT_KJjBeIrSggk9i-41" vertex="1">
          <mxGeometry x="345" y="50" width="165" height="30" as="geometry" />
        </mxCell>
        <mxCell id="JZ2fbT_KJjBeIrSggk9i-50" value="" style="endArrow=classic;html=1;rounded=0;" parent="JZ2fbT_KJjBeIrSggk9i-41" edge="1">
          <mxGeometry width="50" height="50" relative="1" as="geometry">
            <mxPoint x="395" y="99" as="sourcePoint" />
            <mxPoint x="465" y="99" as="targetPoint" />
          </mxGeometry>
        </mxCell>
        <mxCell id="JZ2fbT_KJjBeIrSggk9i-51" value="" style="endArrow=classic;html=1;rounded=0;" parent="JZ2fbT_KJjBeIrSggk9i-41" edge="1">
          <mxGeometry width="50" height="50" relative="1" as="geometry">
            <mxPoint x="465" y="130" as="sourcePoint" />
            <mxPoint x="395" y="130" as="targetPoint" />
          </mxGeometry>
        </mxCell>
        <mxCell id="JZ2fbT_KJjBeIrSggk9i-52" value="1: startInterface()" style="text;html=1;strokeColor=none;fillColor=none;align=center;verticalAlign=middle;whiteSpace=wrap;rounded=0;" parent="JZ2fbT_KJjBeIrSggk9i-41" vertex="1">
          <mxGeometry x="355" y="130" width="150" height="30" as="geometry" />
        </mxCell>
        <mxCell id="JZ2fbT_KJjBeIrSggk9i-53" value="" style="endArrow=none;html=1;rounded=0;strokeWidth=2;exitX=0.5;exitY=1;exitDx=0;exitDy=0;entryX=0.5;entryY=0;entryDx=0;entryDy=0;" parent="JZ2fbT_KJjBeIrSggk9i-41" source="JZ2fbT_KJjBeIrSggk9i-47" target="JZ2fbT_KJjBeIrSggk9i-54" edge="1">
          <mxGeometry width="50" height="50" relative="1" as="geometry">
            <mxPoint x="575" y="140" as="sourcePoint" />
            <mxPoint x="415" y="280" as="targetPoint" />
          </mxGeometry>
        </mxCell>
        <mxCell id="JZ2fbT_KJjBeIrSggk9i-54" value=":RecruitInfo" style="rounded=0;whiteSpace=wrap;html=1;" parent="JZ2fbT_KJjBeIrSggk9i-41" vertex="1">
          <mxGeometry x="415" y="240" width="120" height="60" as="geometry" />
        </mxCell>
        <mxCell id="JZ2fbT_KJjBeIrSggk9i-55" value="" style="endArrow=classic;html=1;rounded=0;" parent="JZ2fbT_KJjBeIrSggk9i-41" edge="1">
          <mxGeometry width="50" height="50" relative="1" as="geometry">
            <mxPoint x="565" y="170" as="sourcePoint" />
            <mxPoint x="505" y="230" as="targetPoint" />
          </mxGeometry>
        </mxCell>
        <mxCell id="JZ2fbT_KJjBeIrSggk9i-56" value="3.1.1:&amp;nbsp;getRecruitmentDetails()&lt;br&gt;4.1.1: closeRecruitment()" style="text;html=1;strokeColor=none;fillColor=none;align=center;verticalAlign=middle;whiteSpace=wrap;rounded=0;" parent="JZ2fbT_KJjBeIrSggk9i-41" vertex="1">
          <mxGeometry x="515" y="190" width="235" height="30" as="geometry" />
        </mxCell>
        <mxCell id="JZ2fbT_KJjBeIrSggk9i-57" value="" style="endArrow=none;html=1;rounded=0;strokeWidth=2;exitX=1;exitY=0.5;exitDx=0;exitDy=0;entryX=0;entryY=0.5;entryDx=0;entryDy=0;" parent="JZ2fbT_KJjBeIrSggk9i-41" source="JZ2fbT_KJjBeIrSggk9i-47" target="JZ2fbT_KJjBeIrSggk9i-58" edge="1">
          <mxGeometry width="50" height="50" relative="1" as="geometry">
            <mxPoint x="585" y="150" as="sourcePoint" />
            <mxPoint x="485" y="250" as="targetPoint" />
          </mxGeometry>
        </mxCell>
        <mxCell id="JZ2fbT_KJjBeIrSggk9i-58" value=":CompMember" style="rounded=0;whiteSpace=wrap;html=1;" parent="JZ2fbT_KJjBeIrSggk9i-41" vertex="1">
          <mxGeometry x="795" y="80" width="160" height="60" as="geometry" />
        </mxCell>
        <mxCell id="JZ2fbT_KJjBeIrSggk9i-59" value="2.1.1: getRecruitmentList()" style="text;html=1;strokeColor=none;fillColor=none;align=center;verticalAlign=middle;whiteSpace=wrap;rounded=0;" parent="JZ2fbT_KJjBeIrSggk9i-41" vertex="1">
          <mxGeometry x="635" y="60" width="160" height="30" as="geometry" />
        </mxCell>
        <mxCell id="JZ2fbT_KJjBeIrSggk9i-60" value="" style="endArrow=classic;html=1;rounded=0;" parent="JZ2fbT_KJjBeIrSggk9i-41" edge="1">
          <mxGeometry width="50" height="50" relative="1" as="geometry">
            <mxPoint x="680" y="100" as="sourcePoint" />
            <mxPoint x="750" y="100" as="targetPoint" />
          </mxGeometry>
        </mxCell>
      </root>
    </mxGraphModel>
  </diagram>
</mxfile>
